# xmcd
#
# Track frame offsets:
#	150
#	21925
#	40092
#	58455
#	74580
#	92650
#	113527
#	133897
#	154662
#	176697
#
# Disc length: 2619 seconds
#
# Revision: 1
# Processed by: cddbd v1.4PL0 Copyright (c) Steve Scherf et al.
# Submitted via: audiograbber 1.82.02
#
DISCID=8b0a390a
DTITLE=soul symphony ft. the three degrees - soul train 2001
DYEAR=1900
DGENRE=Soul
TTITLE0=soul symphony
TTITLE1=hustle '92
TTITLE2=close to the heart
TTITLE3=la la means i love you
TTITLE4=soul train 2001 (ft. three degrees)
TTITLE5=6 (ft. three degrees)
TTITLE6=blue champagne
TTITLE7=walking in a sunny day
TTITLE8=9 (ft. three degrees)
TTITLE9=philly soul
EXTD=
EXTT0=
EXTT1=
EXTT2=
EXTT3=
EXTT4=
EXTT5=
EXTT6=
EXTT7=
EXTT8=
EXTT9=
PLAYORDER=
